<mxfile host="Electron" modified="2023-09-17T10:51:20.267Z" agent="Mozilla/5.0 (Windows NT 10.0; Win64; x64) AppleWebKit/537.36 (KHTML, like Gecko) draw.io/21.6.8 Chrome/114.0.5735.289 Electron/25.5.0 Safari/537.36" etag="TI9pT9ladgmU-IWgne3L" version="21.6.8" type="device">
  <diagram name="第 1 页" id="xfSrzAOWeUVQ6g6Et8aS">
    <mxGraphModel dx="2333" dy="1398" grid="1" gridSize="10" guides="1" tooltips="1" connect="1" arrows="1" fold="1" page="1" pageScale="1" pageWidth="4681" pageHeight="3300" math="0" shadow="0">
      <root>
        <mxCell id="0" />
        <mxCell id="1" parent="0" />
        <mxCell id="CDgLYcoSr2W1HdS3gAwi-2" value="" style="edgeStyle=orthogonalEdgeStyle;rounded=0;sketch=1;hachureGap=4;jiggle=2;curveFitting=1;orthogonalLoop=1;jettySize=auto;html=1;fontFamily=Architects Daughter;fontSource=https%3A%2F%2Ffonts.googleapis.com%2Fcss%3Ffamily%3DArchitects%2BDaughter;fontSize=16;" edge="1" parent="1" source="yUYkIAimXa075YADZzFL-1" target="CDgLYcoSr2W1HdS3gAwi-1">
          <mxGeometry relative="1" as="geometry" />
        </mxCell>
        <mxCell id="yUYkIAimXa075YADZzFL-1" value="开始" style="strokeWidth=2;html=1;shape=mxgraph.flowchart.terminator;whiteSpace=wrap;sketch=1;hachureGap=4;jiggle=2;curveFitting=1;fontFamily=Architects Daughter;fontSource=https%3A%2F%2Ffonts.googleapis.com%2Fcss%3Ffamily%3DArchitects%2BDaughter;fontSize=20;" parent="1" vertex="1">
          <mxGeometry x="440" y="110" width="100" height="60" as="geometry" />
        </mxCell>
        <mxCell id="CDgLYcoSr2W1HdS3gAwi-4" value="" style="edgeStyle=orthogonalEdgeStyle;rounded=0;sketch=1;hachureGap=4;jiggle=2;curveFitting=1;orthogonalLoop=1;jettySize=auto;html=1;fontFamily=Architects Daughter;fontSource=https%3A%2F%2Ffonts.googleapis.com%2Fcss%3Ffamily%3DArchitects%2BDaughter;fontSize=16;" edge="1" parent="1" source="CDgLYcoSr2W1HdS3gAwi-1" target="CDgLYcoSr2W1HdS3gAwi-3">
          <mxGeometry relative="1" as="geometry" />
        </mxCell>
        <mxCell id="CDgLYcoSr2W1HdS3gAwi-1" value="挂起调度器" style="whiteSpace=wrap;html=1;fontSize=20;fontFamily=Architects Daughter;strokeWidth=2;sketch=1;hachureGap=4;jiggle=2;curveFitting=1;fontSource=https%3A%2F%2Ffonts.googleapis.com%2Fcss%3Ffamily%3DArchitects%2BDaughter;" vertex="1" parent="1">
          <mxGeometry x="430" y="250" width="120" height="60" as="geometry" />
        </mxCell>
        <mxCell id="CDgLYcoSr2W1HdS3gAwi-6" value="" style="edgeStyle=orthogonalEdgeStyle;rounded=0;sketch=1;hachureGap=4;jiggle=2;curveFitting=1;orthogonalLoop=1;jettySize=auto;html=1;fontFamily=Architects Daughter;fontSource=https%3A%2F%2Ffonts.googleapis.com%2Fcss%3Ffamily%3DArchitects%2BDaughter;fontSize=16;" edge="1" parent="1" source="CDgLYcoSr2W1HdS3gAwi-3" target="CDgLYcoSr2W1HdS3gAwi-5">
          <mxGeometry relative="1" as="geometry" />
        </mxCell>
        <mxCell id="CDgLYcoSr2W1HdS3gAwi-11" value="是" style="edgeLabel;html=1;align=center;verticalAlign=middle;resizable=0;points=[];fontSize=20;fontFamily=Architects Daughter;" vertex="1" connectable="0" parent="CDgLYcoSr2W1HdS3gAwi-6">
          <mxGeometry x="-0.044" y="-4" relative="1" as="geometry">
            <mxPoint as="offset" />
          </mxGeometry>
        </mxCell>
        <mxCell id="CDgLYcoSr2W1HdS3gAwi-19" value="" style="edgeStyle=orthogonalEdgeStyle;rounded=0;sketch=1;hachureGap=4;jiggle=2;curveFitting=1;orthogonalLoop=1;jettySize=auto;html=1;fontFamily=Architects Daughter;fontSource=https%3A%2F%2Ffonts.googleapis.com%2Fcss%3Ffamily%3DArchitects%2BDaughter;fontSize=16;" edge="1" parent="1" source="CDgLYcoSr2W1HdS3gAwi-3" target="CDgLYcoSr2W1HdS3gAwi-18">
          <mxGeometry relative="1" as="geometry">
            <Array as="points">
              <mxPoint x="990" y="410" />
            </Array>
          </mxGeometry>
        </mxCell>
        <mxCell id="CDgLYcoSr2W1HdS3gAwi-22" value="否" style="edgeLabel;html=1;align=center;verticalAlign=middle;resizable=0;points=[];fontSize=20;fontFamily=Architects Daughter;" vertex="1" connectable="0" parent="CDgLYcoSr2W1HdS3gAwi-19">
          <mxGeometry x="0.5477" y="3" relative="1" as="geometry">
            <mxPoint as="offset" />
          </mxGeometry>
        </mxCell>
        <mxCell id="CDgLYcoSr2W1HdS3gAwi-24" style="edgeStyle=orthogonalEdgeStyle;rounded=0;sketch=1;hachureGap=4;jiggle=2;curveFitting=1;orthogonalLoop=1;jettySize=auto;html=1;entryX=0.5;entryY=0;entryDx=0;entryDy=0;fontFamily=Architects Daughter;fontSource=https%3A%2F%2Ffonts.googleapis.com%2Fcss%3Ffamily%3DArchitects%2BDaughter;fontSize=16;" edge="1" parent="1" source="CDgLYcoSr2W1HdS3gAwi-3" target="CDgLYcoSr2W1HdS3gAwi-23">
          <mxGeometry relative="1" as="geometry" />
        </mxCell>
        <mxCell id="CDgLYcoSr2W1HdS3gAwi-25" value="否" style="edgeLabel;html=1;align=center;verticalAlign=middle;resizable=0;points=[];fontSize=20;fontFamily=Architects Daughter;" vertex="1" connectable="0" parent="CDgLYcoSr2W1HdS3gAwi-24">
          <mxGeometry x="0.8238" y="2" relative="1" as="geometry">
            <mxPoint as="offset" />
          </mxGeometry>
        </mxCell>
        <mxCell id="CDgLYcoSr2W1HdS3gAwi-3" value="判断当前任务条件是否满足" style="rhombus;whiteSpace=wrap;html=1;fontSize=20;fontFamily=Architects Daughter;strokeWidth=2;sketch=1;hachureGap=4;jiggle=2;curveFitting=1;fontSource=https%3A%2F%2Ffonts.googleapis.com%2Fcss%3Ffamily%3DArchitects%2BDaughter;" vertex="1" parent="1">
          <mxGeometry x="340" y="340" width="300" height="140" as="geometry" />
        </mxCell>
        <mxCell id="CDgLYcoSr2W1HdS3gAwi-8" value="" style="edgeStyle=orthogonalEdgeStyle;rounded=0;sketch=1;hachureGap=4;jiggle=2;curveFitting=1;orthogonalLoop=1;jettySize=auto;html=1;fontFamily=Architects Daughter;fontSource=https%3A%2F%2Ffonts.googleapis.com%2Fcss%3Ffamily%3DArchitects%2BDaughter;fontSize=16;" edge="1" parent="1" source="CDgLYcoSr2W1HdS3gAwi-5" target="CDgLYcoSr2W1HdS3gAwi-7">
          <mxGeometry relative="1" as="geometry" />
        </mxCell>
        <mxCell id="CDgLYcoSr2W1HdS3gAwi-5" value="获取事件组位" style="whiteSpace=wrap;html=1;fontSize=20;fontFamily=Architects Daughter;strokeWidth=2;sketch=1;hachureGap=4;jiggle=2;curveFitting=1;fontSource=https%3A%2F%2Ffonts.googleapis.com%2Fcss%3Ffamily%3DArchitects%2BDaughter;" vertex="1" parent="1">
          <mxGeometry x="380" y="580" width="220" height="60" as="geometry" />
        </mxCell>
        <mxCell id="CDgLYcoSr2W1HdS3gAwi-10" value="" style="edgeStyle=orthogonalEdgeStyle;rounded=0;sketch=1;hachureGap=4;jiggle=2;curveFitting=1;orthogonalLoop=1;jettySize=auto;html=1;fontFamily=Architects Daughter;fontSource=https%3A%2F%2Ffonts.googleapis.com%2Fcss%3Ffamily%3DArchitects%2BDaughter;fontSize=16;" edge="1" parent="1" source="CDgLYcoSr2W1HdS3gAwi-7" target="CDgLYcoSr2W1HdS3gAwi-9">
          <mxGeometry relative="1" as="geometry" />
        </mxCell>
        <mxCell id="CDgLYcoSr2W1HdS3gAwi-7" value="等待时间设置为0" style="whiteSpace=wrap;html=1;fontSize=20;fontFamily=Architects Daughter;strokeWidth=2;sketch=1;hachureGap=4;jiggle=2;curveFitting=1;fontSource=https%3A%2F%2Ffonts.googleapis.com%2Fcss%3Ffamily%3DArchitects%2BDaughter;" vertex="1" parent="1">
          <mxGeometry x="395" y="680" width="190" height="60" as="geometry" />
        </mxCell>
        <mxCell id="CDgLYcoSr2W1HdS3gAwi-13" value="" style="edgeStyle=orthogonalEdgeStyle;rounded=0;sketch=1;hachureGap=4;jiggle=2;curveFitting=1;orthogonalLoop=1;jettySize=auto;html=1;fontFamily=Architects Daughter;fontSource=https%3A%2F%2Ffonts.googleapis.com%2Fcss%3Ffamily%3DArchitects%2BDaughter;fontSize=16;" edge="1" parent="1" source="CDgLYcoSr2W1HdS3gAwi-9" target="CDgLYcoSr2W1HdS3gAwi-12">
          <mxGeometry relative="1" as="geometry" />
        </mxCell>
        <mxCell id="CDgLYcoSr2W1HdS3gAwi-15" value="是" style="edgeLabel;html=1;align=center;verticalAlign=middle;resizable=0;points=[];fontSize=20;fontFamily=Architects Daughter;" vertex="1" connectable="0" parent="CDgLYcoSr2W1HdS3gAwi-13">
          <mxGeometry x="-0.1855" y="-2" relative="1" as="geometry">
            <mxPoint as="offset" />
          </mxGeometry>
        </mxCell>
        <mxCell id="CDgLYcoSr2W1HdS3gAwi-17" value="" style="edgeStyle=orthogonalEdgeStyle;rounded=0;sketch=1;hachureGap=4;jiggle=2;curveFitting=1;orthogonalLoop=1;jettySize=auto;html=1;fontFamily=Architects Daughter;fontSource=https%3A%2F%2Ffonts.googleapis.com%2Fcss%3Ffamily%3DArchitects%2BDaughter;fontSize=16;" edge="1" parent="1" source="CDgLYcoSr2W1HdS3gAwi-9" target="CDgLYcoSr2W1HdS3gAwi-16">
          <mxGeometry relative="1" as="geometry" />
        </mxCell>
        <mxCell id="CDgLYcoSr2W1HdS3gAwi-9" value="判断退出是否清除事件组位" style="rhombus;whiteSpace=wrap;html=1;fontSize=20;fontFamily=Architects Daughter;strokeWidth=2;sketch=1;hachureGap=4;jiggle=2;curveFitting=1;fontSource=https%3A%2F%2Ffonts.googleapis.com%2Fcss%3Ffamily%3DArchitects%2BDaughter;" vertex="1" parent="1">
          <mxGeometry x="322.5" y="780" width="335" height="140" as="geometry" />
        </mxCell>
        <mxCell id="CDgLYcoSr2W1HdS3gAwi-42" value="" style="edgeStyle=orthogonalEdgeStyle;rounded=0;sketch=1;hachureGap=4;jiggle=2;curveFitting=1;orthogonalLoop=1;jettySize=auto;html=1;fontFamily=Architects Daughter;fontSource=https%3A%2F%2Ffonts.googleapis.com%2Fcss%3Ffamily%3DArchitects%2BDaughter;fontSize=16;" edge="1" parent="1" source="CDgLYcoSr2W1HdS3gAwi-12" target="CDgLYcoSr2W1HdS3gAwi-41">
          <mxGeometry relative="1" as="geometry">
            <Array as="points">
              <mxPoint x="490" y="1460" />
            </Array>
          </mxGeometry>
        </mxCell>
        <mxCell id="CDgLYcoSr2W1HdS3gAwi-12" value="事件组位进行翻转" style="whiteSpace=wrap;html=1;fontSize=20;fontFamily=Architects Daughter;strokeWidth=2;sketch=1;hachureGap=4;jiggle=2;curveFitting=1;fontSource=https%3A%2F%2Ffonts.googleapis.com%2Fcss%3Ffamily%3DArchitects%2BDaughter;" vertex="1" parent="1">
          <mxGeometry x="355" y="1030" width="270" height="60" as="geometry" />
        </mxCell>
        <mxCell id="CDgLYcoSr2W1HdS3gAwi-49" style="edgeStyle=orthogonalEdgeStyle;rounded=0;sketch=1;hachureGap=4;jiggle=2;curveFitting=1;orthogonalLoop=1;jettySize=auto;html=1;exitX=0.5;exitY=1;exitDx=0;exitDy=0;entryX=0;entryY=0.5;entryDx=0;entryDy=0;fontFamily=Architects Daughter;fontSource=https%3A%2F%2Ffonts.googleapis.com%2Fcss%3Ffamily%3DArchitects%2BDaughter;fontSize=16;" edge="1" parent="1" source="CDgLYcoSr2W1HdS3gAwi-16" target="CDgLYcoSr2W1HdS3gAwi-41">
          <mxGeometry relative="1" as="geometry" />
        </mxCell>
        <mxCell id="CDgLYcoSr2W1HdS3gAwi-16" value="调试检查" style="whiteSpace=wrap;html=1;fontSize=20;fontFamily=Architects Daughter;strokeWidth=2;sketch=1;hachureGap=4;jiggle=2;curveFitting=1;fontSource=https%3A%2F%2Ffonts.googleapis.com%2Fcss%3Ffamily%3DArchitects%2BDaughter;" vertex="1" parent="1">
          <mxGeometry x="740" y="1030" width="120" height="60" as="geometry" />
        </mxCell>
        <mxCell id="CDgLYcoSr2W1HdS3gAwi-21" value="" style="edgeStyle=orthogonalEdgeStyle;rounded=0;sketch=1;hachureGap=4;jiggle=2;curveFitting=1;orthogonalLoop=1;jettySize=auto;html=1;fontFamily=Architects Daughter;fontSource=https%3A%2F%2Ffonts.googleapis.com%2Fcss%3Ffamily%3DArchitects%2BDaughter;fontSize=16;" edge="1" parent="1" source="CDgLYcoSr2W1HdS3gAwi-18" target="CDgLYcoSr2W1HdS3gAwi-20">
          <mxGeometry relative="1" as="geometry" />
        </mxCell>
        <mxCell id="CDgLYcoSr2W1HdS3gAwi-18" value="获取事件组位" style="whiteSpace=wrap;html=1;fontSize=20;fontFamily=Architects Daughter;strokeWidth=2;sketch=1;hachureGap=4;jiggle=2;curveFitting=1;fontSource=https%3A%2F%2Ffonts.googleapis.com%2Fcss%3Ffamily%3DArchitects%2BDaughter;" vertex="1" parent="1">
          <mxGeometry x="900" y="590" width="180" height="50" as="geometry" />
        </mxCell>
        <mxCell id="CDgLYcoSr2W1HdS3gAwi-20" value="超时标志设置位pdFasle" style="whiteSpace=wrap;html=1;fontSize=20;fontFamily=Architects Daughter;strokeWidth=2;sketch=1;hachureGap=4;jiggle=2;curveFitting=1;fontSource=https%3A%2F%2Ffonts.googleapis.com%2Fcss%3Ffamily%3DArchitects%2BDaughter;" vertex="1" parent="1">
          <mxGeometry x="870" y="715" width="240" height="60" as="geometry" />
        </mxCell>
        <mxCell id="CDgLYcoSr2W1HdS3gAwi-27" value="" style="edgeStyle=orthogonalEdgeStyle;rounded=0;sketch=1;hachureGap=4;jiggle=2;curveFitting=1;orthogonalLoop=1;jettySize=auto;html=1;fontFamily=Architects Daughter;fontSource=https%3A%2F%2Ffonts.googleapis.com%2Fcss%3Ffamily%3DArchitects%2BDaughter;fontSize=16;" edge="1" parent="1" source="CDgLYcoSr2W1HdS3gAwi-23" target="CDgLYcoSr2W1HdS3gAwi-26">
          <mxGeometry relative="1" as="geometry" />
        </mxCell>
        <mxCell id="CDgLYcoSr2W1HdS3gAwi-28" value="是" style="edgeLabel;html=1;align=center;verticalAlign=middle;resizable=0;points=[];fontSize=20;fontFamily=Architects Daughter;" vertex="1" connectable="0" parent="CDgLYcoSr2W1HdS3gAwi-27">
          <mxGeometry x="-0.1571" y="2" relative="1" as="geometry">
            <mxPoint y="1" as="offset" />
          </mxGeometry>
        </mxCell>
        <mxCell id="CDgLYcoSr2W1HdS3gAwi-30" value="" style="edgeStyle=orthogonalEdgeStyle;rounded=0;sketch=1;hachureGap=4;jiggle=2;curveFitting=1;orthogonalLoop=1;jettySize=auto;html=1;fontFamily=Architects Daughter;fontSource=https%3A%2F%2Ffonts.googleapis.com%2Fcss%3Ffamily%3DArchitects%2BDaughter;fontSize=16;" edge="1" parent="1" source="CDgLYcoSr2W1HdS3gAwi-23" target="CDgLYcoSr2W1HdS3gAwi-29">
          <mxGeometry relative="1" as="geometry" />
        </mxCell>
        <mxCell id="CDgLYcoSr2W1HdS3gAwi-51" value="否" style="edgeLabel;html=1;align=center;verticalAlign=middle;resizable=0;points=[];fontSize=20;fontFamily=Architects Daughter;" vertex="1" connectable="0" parent="CDgLYcoSr2W1HdS3gAwi-30">
          <mxGeometry x="0.6993" y="-2" relative="1" as="geometry">
            <mxPoint as="offset" />
          </mxGeometry>
        </mxCell>
        <mxCell id="CDgLYcoSr2W1HdS3gAwi-23" value="判断退出是否清除事件组位" style="rhombus;whiteSpace=wrap;html=1;sketch=1;hachureGap=4;jiggle=2;curveFitting=1;fontFamily=Architects Daughter;fontSource=https%3A%2F%2Ffonts.googleapis.com%2Fcss%3Ffamily%3DArchitects%2BDaughter;fontSize=20;" vertex="1" parent="1">
          <mxGeometry x="1310" y="552.5" width="290" height="125" as="geometry" />
        </mxCell>
        <mxCell id="CDgLYcoSr2W1HdS3gAwi-32" value="" style="edgeStyle=orthogonalEdgeStyle;rounded=0;sketch=1;hachureGap=4;jiggle=2;curveFitting=1;orthogonalLoop=1;jettySize=auto;html=1;fontFamily=Architects Daughter;fontSource=https%3A%2F%2Ffonts.googleapis.com%2Fcss%3Ffamily%3DArchitects%2BDaughter;fontSize=16;" edge="1" parent="1" source="CDgLYcoSr2W1HdS3gAwi-26" target="CDgLYcoSr2W1HdS3gAwi-31">
          <mxGeometry relative="1" as="geometry" />
        </mxCell>
        <mxCell id="CDgLYcoSr2W1HdS3gAwi-36" value="否" style="edgeLabel;html=1;align=center;verticalAlign=middle;resizable=0;points=[];fontSize=20;fontFamily=Architects Daughter;" vertex="1" connectable="0" parent="CDgLYcoSr2W1HdS3gAwi-32">
          <mxGeometry x="0.6251" y="2" relative="1" as="geometry">
            <mxPoint as="offset" />
          </mxGeometry>
        </mxCell>
        <mxCell id="CDgLYcoSr2W1HdS3gAwi-34" value="" style="edgeStyle=orthogonalEdgeStyle;rounded=0;sketch=1;hachureGap=4;jiggle=2;curveFitting=1;orthogonalLoop=1;jettySize=auto;html=1;fontFamily=Architects Daughter;fontSource=https%3A%2F%2Ffonts.googleapis.com%2Fcss%3Ffamily%3DArchitects%2BDaughter;fontSize=16;" edge="1" parent="1" source="CDgLYcoSr2W1HdS3gAwi-26" target="CDgLYcoSr2W1HdS3gAwi-33">
          <mxGeometry relative="1" as="geometry" />
        </mxCell>
        <mxCell id="CDgLYcoSr2W1HdS3gAwi-35" value="是" style="edgeLabel;html=1;align=center;verticalAlign=middle;resizable=0;points=[];fontSize=20;fontFamily=Architects Daughter;" vertex="1" connectable="0" parent="CDgLYcoSr2W1HdS3gAwi-34">
          <mxGeometry x="0.2125" y="4" relative="1" as="geometry">
            <mxPoint y="-1" as="offset" />
          </mxGeometry>
        </mxCell>
        <mxCell id="CDgLYcoSr2W1HdS3gAwi-26" value="是否需要等待所有事件组位" style="rhombus;whiteSpace=wrap;html=1;sketch=1;hachureGap=4;jiggle=2;curveFitting=1;fontFamily=Architects Daughter;fontSource=https%3A%2F%2Ffonts.googleapis.com%2Fcss%3Ffamily%3DArchitects%2BDaughter;fontSize=20;" vertex="1" parent="1">
          <mxGeometry x="1310" y="787.5" width="290" height="125" as="geometry" />
        </mxCell>
        <mxCell id="CDgLYcoSr2W1HdS3gAwi-50" style="edgeStyle=orthogonalEdgeStyle;rounded=0;sketch=1;hachureGap=4;jiggle=2;curveFitting=1;orthogonalLoop=1;jettySize=auto;html=1;exitX=1;exitY=0.5;exitDx=0;exitDy=0;entryX=1;entryY=0.5;entryDx=0;entryDy=0;fontFamily=Architects Daughter;fontSource=https%3A%2F%2Ffonts.googleapis.com%2Fcss%3Ffamily%3DArchitects%2BDaughter;fontSize=16;" edge="1" parent="1" source="CDgLYcoSr2W1HdS3gAwi-29" target="CDgLYcoSr2W1HdS3gAwi-41">
          <mxGeometry relative="1" as="geometry" />
        </mxCell>
        <mxCell id="CDgLYcoSr2W1HdS3gAwi-29" value="调试检查" style="whiteSpace=wrap;html=1;fontSize=20;fontFamily=Architects Daughter;sketch=1;hachureGap=4;jiggle=2;curveFitting=1;fontSource=https%3A%2F%2Ffonts.googleapis.com%2Fcss%3Ffamily%3DArchitects%2BDaughter;" vertex="1" parent="1">
          <mxGeometry x="1760" y="720" width="120" height="60" as="geometry" />
        </mxCell>
        <mxCell id="CDgLYcoSr2W1HdS3gAwi-46" style="edgeStyle=orthogonalEdgeStyle;rounded=0;sketch=1;hachureGap=4;jiggle=2;curveFitting=1;orthogonalLoop=1;jettySize=auto;html=1;exitX=0.5;exitY=1;exitDx=0;exitDy=0;entryX=1;entryY=0.5;entryDx=0;entryDy=0;fontFamily=Architects Daughter;fontSource=https%3A%2F%2Ffonts.googleapis.com%2Fcss%3Ffamily%3DArchitects%2BDaughter;fontSize=16;" edge="1" parent="1" source="CDgLYcoSr2W1HdS3gAwi-31" target="CDgLYcoSr2W1HdS3gAwi-41">
          <mxGeometry relative="1" as="geometry" />
        </mxCell>
        <mxCell id="CDgLYcoSr2W1HdS3gAwi-31" value="调试检查" style="whiteSpace=wrap;html=1;fontSize=20;fontFamily=Architects Daughter;sketch=1;hachureGap=4;jiggle=2;curveFitting=1;fontSource=https%3A%2F%2Ffonts.googleapis.com%2Fcss%3Ffamily%3DArchitects%2BDaughter;" vertex="1" parent="1">
          <mxGeometry x="1760" y="960" width="120" height="60" as="geometry" />
        </mxCell>
        <mxCell id="CDgLYcoSr2W1HdS3gAwi-38" value="" style="edgeStyle=orthogonalEdgeStyle;rounded=0;sketch=1;hachureGap=4;jiggle=2;curveFitting=1;orthogonalLoop=1;jettySize=auto;html=1;fontFamily=Architects Daughter;fontSource=https%3A%2F%2Ffonts.googleapis.com%2Fcss%3Ffamily%3DArchitects%2BDaughter;fontSize=16;" edge="1" parent="1" source="CDgLYcoSr2W1HdS3gAwi-33" target="CDgLYcoSr2W1HdS3gAwi-37">
          <mxGeometry relative="1" as="geometry" />
        </mxCell>
        <mxCell id="CDgLYcoSr2W1HdS3gAwi-33" value="将现有状态记录" style="whiteSpace=wrap;html=1;fontSize=20;fontFamily=Architects Daughter;sketch=1;hachureGap=4;jiggle=2;curveFitting=1;fontSource=https%3A%2F%2Ffonts.googleapis.com%2Fcss%3Ffamily%3DArchitects%2BDaughter;" vertex="1" parent="1">
          <mxGeometry x="1305" y="1020" width="295" height="60" as="geometry" />
        </mxCell>
        <mxCell id="CDgLYcoSr2W1HdS3gAwi-40" value="" style="edgeStyle=orthogonalEdgeStyle;rounded=0;sketch=1;hachureGap=4;jiggle=2;curveFitting=1;orthogonalLoop=1;jettySize=auto;html=1;fontFamily=Architects Daughter;fontSource=https%3A%2F%2Ffonts.googleapis.com%2Fcss%3Ffamily%3DArchitects%2BDaughter;fontSize=16;" edge="1" parent="1" source="CDgLYcoSr2W1HdS3gAwi-37" target="CDgLYcoSr2W1HdS3gAwi-39">
          <mxGeometry relative="1" as="geometry" />
        </mxCell>
        <mxCell id="CDgLYcoSr2W1HdS3gAwi-37" value="当前任务插入xTasksWaitingForBits链表" style="whiteSpace=wrap;html=1;fontSize=20;fontFamily=Architects Daughter;sketch=1;hachureGap=4;jiggle=2;curveFitting=1;fontSource=https%3A%2F%2Ffonts.googleapis.com%2Fcss%3Ffamily%3DArchitects%2BDaughter;" vertex="1" parent="1">
          <mxGeometry x="1248.75" y="1160" width="407.5" height="60" as="geometry" />
        </mxCell>
        <mxCell id="CDgLYcoSr2W1HdS3gAwi-48" style="edgeStyle=orthogonalEdgeStyle;rounded=0;sketch=1;hachureGap=4;jiggle=2;curveFitting=1;orthogonalLoop=1;jettySize=auto;html=1;exitX=0.5;exitY=1;exitDx=0;exitDy=0;entryX=1;entryY=0.5;entryDx=0;entryDy=0;fontFamily=Architects Daughter;fontSource=https%3A%2F%2Ffonts.googleapis.com%2Fcss%3Ffamily%3DArchitects%2BDaughter;fontSize=16;" edge="1" parent="1" source="CDgLYcoSr2W1HdS3gAwi-39" target="CDgLYcoSr2W1HdS3gAwi-41">
          <mxGeometry relative="1" as="geometry" />
        </mxCell>
        <mxCell id="CDgLYcoSr2W1HdS3gAwi-39" value="当前任务插入DelayList" style="whiteSpace=wrap;html=1;fontSize=20;fontFamily=Architects Daughter;sketch=1;hachureGap=4;jiggle=2;curveFitting=1;fontSource=https%3A%2F%2Ffonts.googleapis.com%2Fcss%3Ffamily%3DArchitects%2BDaughter;" vertex="1" parent="1">
          <mxGeometry x="1328.75" y="1300" width="247.5" height="60" as="geometry" />
        </mxCell>
        <mxCell id="CDgLYcoSr2W1HdS3gAwi-53" value="" style="edgeStyle=orthogonalEdgeStyle;rounded=0;sketch=1;hachureGap=4;jiggle=2;curveFitting=1;orthogonalLoop=1;jettySize=auto;html=1;fontFamily=Architects Daughter;fontSource=https%3A%2F%2Ffonts.googleapis.com%2Fcss%3Ffamily%3DArchitects%2BDaughter;fontSize=16;" edge="1" parent="1" source="CDgLYcoSr2W1HdS3gAwi-41" target="CDgLYcoSr2W1HdS3gAwi-52">
          <mxGeometry relative="1" as="geometry" />
        </mxCell>
        <mxCell id="CDgLYcoSr2W1HdS3gAwi-41" value="恢复调度器" style="whiteSpace=wrap;html=1;fontSize=20;fontFamily=Architects Daughter;strokeWidth=2;sketch=1;hachureGap=4;jiggle=2;curveFitting=1;fontSource=https%3A%2F%2Ffonts.googleapis.com%2Fcss%3Ffamily%3DArchitects%2BDaughter;" vertex="1" parent="1">
          <mxGeometry x="1070" y="1430" width="120" height="60" as="geometry" />
        </mxCell>
        <mxCell id="CDgLYcoSr2W1HdS3gAwi-55" value="" style="edgeStyle=orthogonalEdgeStyle;rounded=0;sketch=1;hachureGap=4;jiggle=2;curveFitting=1;orthogonalLoop=1;jettySize=auto;html=1;fontFamily=Architects Daughter;fontSource=https%3A%2F%2Ffonts.googleapis.com%2Fcss%3Ffamily%3DArchitects%2BDaughter;fontSize=16;" edge="1" parent="1" source="CDgLYcoSr2W1HdS3gAwi-52" target="CDgLYcoSr2W1HdS3gAwi-54">
          <mxGeometry relative="1" as="geometry" />
        </mxCell>
        <mxCell id="CDgLYcoSr2W1HdS3gAwi-58" value="是" style="edgeLabel;html=1;align=center;verticalAlign=middle;resizable=0;points=[];fontSize=20;fontFamily=Architects Daughter;" vertex="1" connectable="0" parent="CDgLYcoSr2W1HdS3gAwi-55">
          <mxGeometry x="-0.1816" y="4" relative="1" as="geometry">
            <mxPoint as="offset" />
          </mxGeometry>
        </mxCell>
        <mxCell id="CDgLYcoSr2W1HdS3gAwi-60" value="" style="edgeStyle=orthogonalEdgeStyle;rounded=0;sketch=1;hachureGap=4;jiggle=2;curveFitting=1;orthogonalLoop=1;jettySize=auto;html=1;fontFamily=Architects Daughter;fontSource=https%3A%2F%2Ffonts.googleapis.com%2Fcss%3Ffamily%3DArchitects%2BDaughter;fontSize=16;" edge="1" parent="1" source="CDgLYcoSr2W1HdS3gAwi-52" target="CDgLYcoSr2W1HdS3gAwi-59">
          <mxGeometry relative="1" as="geometry" />
        </mxCell>
        <mxCell id="CDgLYcoSr2W1HdS3gAwi-90" value="否" style="edgeLabel;html=1;align=center;verticalAlign=middle;resizable=0;points=[];fontSize=20;fontFamily=Architects Daughter;" vertex="1" connectable="0" parent="CDgLYcoSr2W1HdS3gAwi-60">
          <mxGeometry x="0.6557" y="-1" relative="1" as="geometry">
            <mxPoint as="offset" />
          </mxGeometry>
        </mxCell>
        <mxCell id="CDgLYcoSr2W1HdS3gAwi-52" value="判断xTicksToWait是否为0" style="rhombus;whiteSpace=wrap;html=1;fontSize=20;fontFamily=Architects Daughter;strokeWidth=2;sketch=1;hachureGap=4;jiggle=2;curveFitting=1;fontSource=https%3A%2F%2Ffonts.googleapis.com%2Fcss%3Ffamily%3DArchitects%2BDaughter;" vertex="1" parent="1">
          <mxGeometry x="925" y="1550" width="410" height="110" as="geometry" />
        </mxCell>
        <mxCell id="CDgLYcoSr2W1HdS3gAwi-57" value="" style="edgeStyle=orthogonalEdgeStyle;rounded=0;sketch=1;hachureGap=4;jiggle=2;curveFitting=1;orthogonalLoop=1;jettySize=auto;html=1;fontFamily=Architects Daughter;fontSource=https%3A%2F%2Ffonts.googleapis.com%2Fcss%3Ffamily%3DArchitects%2BDaughter;fontSize=16;" edge="1" parent="1" source="CDgLYcoSr2W1HdS3gAwi-54" target="CDgLYcoSr2W1HdS3gAwi-56">
          <mxGeometry relative="1" as="geometry" />
        </mxCell>
        <mxCell id="CDgLYcoSr2W1HdS3gAwi-54" value="返回uxReturn" style="whiteSpace=wrap;html=1;fontSize=20;fontFamily=Architects Daughter;strokeWidth=2;sketch=1;hachureGap=4;jiggle=2;curveFitting=1;fontSource=https%3A%2F%2Ffonts.googleapis.com%2Fcss%3Ffamily%3DArchitects%2BDaughter;" vertex="1" parent="1">
          <mxGeometry x="1030" y="1765" width="200" height="60" as="geometry" />
        </mxCell>
        <mxCell id="CDgLYcoSr2W1HdS3gAwi-56" value="结束" style="strokeWidth=2;html=1;shape=mxgraph.flowchart.terminator;whiteSpace=wrap;sketch=1;hachureGap=4;jiggle=2;curveFitting=1;fontFamily=Architects Daughter;fontSource=https%3A%2F%2Ffonts.googleapis.com%2Fcss%3Ffamily%3DArchitects%2BDaughter;fontSize=20;" vertex="1" parent="1">
          <mxGeometry x="1080" y="1900" width="100" height="60" as="geometry" />
        </mxCell>
        <mxCell id="CDgLYcoSr2W1HdS3gAwi-62" value="" style="edgeStyle=orthogonalEdgeStyle;rounded=0;sketch=1;hachureGap=4;jiggle=2;curveFitting=1;orthogonalLoop=1;jettySize=auto;html=1;fontFamily=Architects Daughter;fontSource=https%3A%2F%2Ffonts.googleapis.com%2Fcss%3Ffamily%3DArchitects%2BDaughter;fontSize=16;" edge="1" parent="1" source="CDgLYcoSr2W1HdS3gAwi-59" target="CDgLYcoSr2W1HdS3gAwi-61">
          <mxGeometry relative="1" as="geometry" />
        </mxCell>
        <mxCell id="CDgLYcoSr2W1HdS3gAwi-59" value="存储状态的值，重置任务结构体中的itemValue" style="whiteSpace=wrap;html=1;fontSize=20;fontFamily=Architects Daughter;strokeWidth=2;sketch=1;hachureGap=4;jiggle=2;curveFitting=1;fontSource=https%3A%2F%2Ffonts.googleapis.com%2Fcss%3Ffamily%3DArchitects%2BDaughter;" vertex="1" parent="1">
          <mxGeometry x="1530" y="1765" width="210" height="60" as="geometry" />
        </mxCell>
        <mxCell id="CDgLYcoSr2W1HdS3gAwi-64" value="" style="edgeStyle=orthogonalEdgeStyle;rounded=0;sketch=1;hachureGap=4;jiggle=2;curveFitting=1;orthogonalLoop=1;jettySize=auto;html=1;fontFamily=Architects Daughter;fontSource=https%3A%2F%2Ffonts.googleapis.com%2Fcss%3Ffamily%3DArchitects%2BDaughter;fontSize=16;" edge="1" parent="1" source="CDgLYcoSr2W1HdS3gAwi-61" target="CDgLYcoSr2W1HdS3gAwi-63">
          <mxGeometry relative="1" as="geometry" />
        </mxCell>
        <mxCell id="CDgLYcoSr2W1HdS3gAwi-65" value="是" style="edgeLabel;html=1;align=center;verticalAlign=middle;resizable=0;points=[];fontSize=20;fontFamily=Architects Daughter;" vertex="1" connectable="0" parent="CDgLYcoSr2W1HdS3gAwi-64">
          <mxGeometry x="-0.0766" y="-4" relative="1" as="geometry">
            <mxPoint as="offset" />
          </mxGeometry>
        </mxCell>
        <mxCell id="CDgLYcoSr2W1HdS3gAwi-67" value="" style="edgeStyle=orthogonalEdgeStyle;rounded=0;sketch=1;hachureGap=4;jiggle=2;curveFitting=1;orthogonalLoop=1;jettySize=auto;html=1;fontFamily=Architects Daughter;fontSource=https%3A%2F%2Ffonts.googleapis.com%2Fcss%3Ffamily%3DArchitects%2BDaughter;fontSize=16;" edge="1" parent="1" source="CDgLYcoSr2W1HdS3gAwi-61" target="CDgLYcoSr2W1HdS3gAwi-66">
          <mxGeometry relative="1" as="geometry" />
        </mxCell>
        <mxCell id="CDgLYcoSr2W1HdS3gAwi-68" value="否" style="edgeLabel;html=1;align=center;verticalAlign=middle;resizable=0;points=[];fontSize=20;fontFamily=Architects Daughter;" vertex="1" connectable="0" parent="CDgLYcoSr2W1HdS3gAwi-67">
          <mxGeometry x="-0.0449" y="3" relative="1" as="geometry">
            <mxPoint as="offset" />
          </mxGeometry>
        </mxCell>
        <mxCell id="CDgLYcoSr2W1HdS3gAwi-61" value="判断任务是否进入阻塞状态" style="rhombus;whiteSpace=wrap;html=1;fontSize=20;fontFamily=Architects Daughter;strokeWidth=2;sketch=1;hachureGap=4;jiggle=2;curveFitting=1;fontSource=https%3A%2F%2Ffonts.googleapis.com%2Fcss%3Ffamily%3DArchitects%2BDaughter;" vertex="1" parent="1">
          <mxGeometry x="1477.5" y="1890" width="315" height="110" as="geometry" />
        </mxCell>
        <mxCell id="CDgLYcoSr2W1HdS3gAwi-63" value="返回xReturn" style="whiteSpace=wrap;html=1;fontSize=20;fontFamily=Architects Daughter;strokeWidth=2;sketch=1;hachureGap=4;jiggle=2;curveFitting=1;fontSource=https%3A%2F%2Ffonts.googleapis.com%2Fcss%3Ffamily%3DArchitects%2BDaughter;" vertex="1" parent="1">
          <mxGeometry x="1575" y="2170" width="120" height="60" as="geometry" />
        </mxCell>
        <mxCell id="CDgLYcoSr2W1HdS3gAwi-70" value="" style="edgeStyle=orthogonalEdgeStyle;rounded=0;sketch=1;hachureGap=4;jiggle=2;curveFitting=1;orthogonalLoop=1;jettySize=auto;html=1;fontFamily=Architects Daughter;fontSource=https%3A%2F%2Ffonts.googleapis.com%2Fcss%3Ffamily%3DArchitects%2BDaughter;fontSize=16;" edge="1" parent="1" source="CDgLYcoSr2W1HdS3gAwi-66" target="CDgLYcoSr2W1HdS3gAwi-69">
          <mxGeometry relative="1" as="geometry" />
        </mxCell>
        <mxCell id="CDgLYcoSr2W1HdS3gAwi-66" value="关中断" style="whiteSpace=wrap;html=1;fontSize=20;fontFamily=Architects Daughter;strokeWidth=2;sketch=1;hachureGap=4;jiggle=2;curveFitting=1;fontSource=https%3A%2F%2Ffonts.googleapis.com%2Fcss%3Ffamily%3DArchitects%2BDaughter;" vertex="1" parent="1">
          <mxGeometry x="1970" y="1915" width="120" height="60" as="geometry" />
        </mxCell>
        <mxCell id="CDgLYcoSr2W1HdS3gAwi-72" value="" style="edgeStyle=orthogonalEdgeStyle;rounded=0;sketch=1;hachureGap=4;jiggle=2;curveFitting=1;orthogonalLoop=1;jettySize=auto;html=1;fontFamily=Architects Daughter;fontSource=https%3A%2F%2Ffonts.googleapis.com%2Fcss%3Ffamily%3DArchitects%2BDaughter;fontSize=16;" edge="1" parent="1" source="CDgLYcoSr2W1HdS3gAwi-69" target="CDgLYcoSr2W1HdS3gAwi-71">
          <mxGeometry relative="1" as="geometry" />
        </mxCell>
        <mxCell id="CDgLYcoSr2W1HdS3gAwi-69" value="xReturn重新获取" style="whiteSpace=wrap;html=1;fontSize=20;fontFamily=Architects Daughter;strokeWidth=2;sketch=1;hachureGap=4;jiggle=2;curveFitting=1;fontSource=https%3A%2F%2Ffonts.googleapis.com%2Fcss%3Ffamily%3DArchitects%2BDaughter;" vertex="1" parent="1">
          <mxGeometry x="1940" y="2055" width="180" height="60" as="geometry" />
        </mxCell>
        <mxCell id="CDgLYcoSr2W1HdS3gAwi-74" value="" style="edgeStyle=orthogonalEdgeStyle;rounded=0;sketch=1;hachureGap=4;jiggle=2;curveFitting=1;orthogonalLoop=1;jettySize=auto;html=1;fontFamily=Architects Daughter;fontSource=https%3A%2F%2Ffonts.googleapis.com%2Fcss%3Ffamily%3DArchitects%2BDaughter;fontSize=16;" edge="1" parent="1" source="CDgLYcoSr2W1HdS3gAwi-71" target="CDgLYcoSr2W1HdS3gAwi-73">
          <mxGeometry relative="1" as="geometry" />
        </mxCell>
        <mxCell id="CDgLYcoSr2W1HdS3gAwi-75" value="是" style="edgeLabel;html=1;align=center;verticalAlign=middle;resizable=0;points=[];fontSize=20;fontFamily=Architects Daughter;" vertex="1" connectable="0" parent="CDgLYcoSr2W1HdS3gAwi-74">
          <mxGeometry x="0.0533" y="3" relative="1" as="geometry">
            <mxPoint as="offset" />
          </mxGeometry>
        </mxCell>
        <mxCell id="CDgLYcoSr2W1HdS3gAwi-77" value="" style="edgeStyle=orthogonalEdgeStyle;rounded=0;sketch=1;hachureGap=4;jiggle=2;curveFitting=1;orthogonalLoop=1;jettySize=auto;html=1;fontFamily=Architects Daughter;fontSource=https%3A%2F%2Ffonts.googleapis.com%2Fcss%3Ffamily%3DArchitects%2BDaughter;fontSize=16;" edge="1" parent="1" source="CDgLYcoSr2W1HdS3gAwi-71" target="CDgLYcoSr2W1HdS3gAwi-76">
          <mxGeometry relative="1" as="geometry" />
        </mxCell>
        <mxCell id="CDgLYcoSr2W1HdS3gAwi-78" value="否" style="edgeLabel;html=1;align=center;verticalAlign=middle;resizable=0;points=[];fontSize=20;fontFamily=Architects Daughter;" vertex="1" connectable="0" parent="CDgLYcoSr2W1HdS3gAwi-77">
          <mxGeometry x="0.5406" y="3" relative="1" as="geometry">
            <mxPoint as="offset" />
          </mxGeometry>
        </mxCell>
        <mxCell id="CDgLYcoSr2W1HdS3gAwi-71" value="判断事件组是否满足条件" style="rhombus;whiteSpace=wrap;html=1;fontSize=20;fontFamily=Architects Daughter;strokeWidth=2;sketch=1;hachureGap=4;jiggle=2;curveFitting=1;fontSource=https%3A%2F%2Ffonts.googleapis.com%2Fcss%3Ffamily%3DArchitects%2BDaughter;" vertex="1" parent="1">
          <mxGeometry x="1885" y="2190" width="290" height="80" as="geometry" />
        </mxCell>
        <mxCell id="CDgLYcoSr2W1HdS3gAwi-80" value="" style="edgeStyle=orthogonalEdgeStyle;rounded=0;sketch=1;hachureGap=4;jiggle=2;curveFitting=1;orthogonalLoop=1;jettySize=auto;html=1;fontFamily=Architects Daughter;fontSource=https%3A%2F%2Ffonts.googleapis.com%2Fcss%3Ffamily%3DArchitects%2BDaughter;fontSize=16;" edge="1" parent="1" source="CDgLYcoSr2W1HdS3gAwi-73" target="CDgLYcoSr2W1HdS3gAwi-79">
          <mxGeometry relative="1" as="geometry" />
        </mxCell>
        <mxCell id="CDgLYcoSr2W1HdS3gAwi-81" value="是" style="edgeLabel;html=1;align=center;verticalAlign=middle;resizable=0;points=[];fontSize=20;fontFamily=Architects Daughter;" vertex="1" connectable="0" parent="CDgLYcoSr2W1HdS3gAwi-80">
          <mxGeometry x="-0.1063" y="5" relative="1" as="geometry">
            <mxPoint as="offset" />
          </mxGeometry>
        </mxCell>
        <mxCell id="CDgLYcoSr2W1HdS3gAwi-83" style="edgeStyle=orthogonalEdgeStyle;rounded=0;sketch=1;hachureGap=4;jiggle=2;curveFitting=1;orthogonalLoop=1;jettySize=auto;html=1;exitX=1;exitY=0.5;exitDx=0;exitDy=0;fontFamily=Architects Daughter;fontSource=https%3A%2F%2Ffonts.googleapis.com%2Fcss%3Ffamily%3DArchitects%2BDaughter;fontSize=16;" edge="1" parent="1" source="CDgLYcoSr2W1HdS3gAwi-73" target="CDgLYcoSr2W1HdS3gAwi-76">
          <mxGeometry relative="1" as="geometry" />
        </mxCell>
        <mxCell id="CDgLYcoSr2W1HdS3gAwi-73" value="是否退出清除事件组位" style="rhombus;whiteSpace=wrap;html=1;fontSize=20;fontFamily=Architects Daughter;strokeWidth=2;sketch=1;hachureGap=4;jiggle=2;curveFitting=1;fontSource=https%3A%2F%2Ffonts.googleapis.com%2Fcss%3Ffamily%3DArchitects%2BDaughter;" vertex="1" parent="1">
          <mxGeometry x="1910" y="2350" width="240" height="80" as="geometry" />
        </mxCell>
        <mxCell id="CDgLYcoSr2W1HdS3gAwi-87" style="edgeStyle=orthogonalEdgeStyle;rounded=0;sketch=1;hachureGap=4;jiggle=2;curveFitting=1;orthogonalLoop=1;jettySize=auto;html=1;exitX=0.5;exitY=1;exitDx=0;exitDy=0;entryX=1;entryY=0.5;entryDx=0;entryDy=0;fontFamily=Architects Daughter;fontSource=https%3A%2F%2Ffonts.googleapis.com%2Fcss%3Ffamily%3DArchitects%2BDaughter;fontSize=16;" edge="1" parent="1" source="CDgLYcoSr2W1HdS3gAwi-76" target="CDgLYcoSr2W1HdS3gAwi-85">
          <mxGeometry relative="1" as="geometry" />
        </mxCell>
        <mxCell id="CDgLYcoSr2W1HdS3gAwi-76" value="调试检查" style="whiteSpace=wrap;html=1;fontSize=20;fontFamily=Architects Daughter;strokeWidth=2;sketch=1;hachureGap=4;jiggle=2;curveFitting=1;fontSource=https%3A%2F%2Ffonts.googleapis.com%2Fcss%3Ffamily%3DArchitects%2BDaughter;" vertex="1" parent="1">
          <mxGeometry x="2300" y="2520" width="120" height="60" as="geometry" />
        </mxCell>
        <mxCell id="CDgLYcoSr2W1HdS3gAwi-86" value="" style="edgeStyle=orthogonalEdgeStyle;rounded=0;sketch=1;hachureGap=4;jiggle=2;curveFitting=1;orthogonalLoop=1;jettySize=auto;html=1;fontFamily=Architects Daughter;fontSource=https%3A%2F%2Ffonts.googleapis.com%2Fcss%3Ffamily%3DArchitects%2BDaughter;fontSize=16;" edge="1" parent="1" source="CDgLYcoSr2W1HdS3gAwi-79" target="CDgLYcoSr2W1HdS3gAwi-85">
          <mxGeometry relative="1" as="geometry" />
        </mxCell>
        <mxCell id="CDgLYcoSr2W1HdS3gAwi-79" value="将所有事件组位置0" style="whiteSpace=wrap;html=1;fontSize=20;fontFamily=Architects Daughter;strokeWidth=2;sketch=1;hachureGap=4;jiggle=2;curveFitting=1;fontSource=https%3A%2F%2Ffonts.googleapis.com%2Fcss%3Ffamily%3DArchitects%2BDaughter;" vertex="1" parent="1">
          <mxGeometry x="1940" y="2520" width="180" height="60" as="geometry" />
        </mxCell>
        <mxCell id="CDgLYcoSr2W1HdS3gAwi-89" value="" style="edgeStyle=orthogonalEdgeStyle;rounded=0;sketch=1;hachureGap=4;jiggle=2;curveFitting=1;orthogonalLoop=1;jettySize=auto;html=1;fontFamily=Architects Daughter;fontSource=https%3A%2F%2Ffonts.googleapis.com%2Fcss%3Ffamily%3DArchitects%2BDaughter;fontSize=16;" edge="1" parent="1" source="CDgLYcoSr2W1HdS3gAwi-85" target="CDgLYcoSr2W1HdS3gAwi-88">
          <mxGeometry relative="1" as="geometry" />
        </mxCell>
        <mxCell id="CDgLYcoSr2W1HdS3gAwi-85" value="超时标志位xTimeoutOccurred置pdTrue" style="whiteSpace=wrap;html=1;fontSize=20;fontFamily=Architects Daughter;strokeWidth=2;sketch=1;hachureGap=4;jiggle=2;curveFitting=1;fontSource=https%3A%2F%2Ffonts.googleapis.com%2Fcss%3Ffamily%3DArchitects%2BDaughter;" vertex="1" parent="1">
          <mxGeometry x="1895" y="2650" width="270" height="90" as="geometry" />
        </mxCell>
        <mxCell id="CDgLYcoSr2W1HdS3gAwi-88" value="开中断" style="whiteSpace=wrap;html=1;fontSize=20;fontFamily=Architects Daughter;strokeWidth=2;sketch=1;hachureGap=4;jiggle=2;curveFitting=1;fontSource=https%3A%2F%2Ffonts.googleapis.com%2Fcss%3Ffamily%3DArchitects%2BDaughter;" vertex="1" parent="1">
          <mxGeometry x="1970" y="2835" width="120" height="60" as="geometry" />
        </mxCell>
      </root>
    </mxGraphModel>
  </diagram>
</mxfile>
